<svg xmlns="http://www.w3.org/2000/svg" viewBox="0 0 128 128">
  <defs>
    <linearGradient id="g" x1="0" y1="0" x2="1" y2="1">
      <stop offset="0" stop-color="#7c3aed" />
      <stop offset="1" stop-color="#22c55e" />
    </linearGradient>
  </defs>
  <rect x="10" y="10" width="108" height="108" rx="28" fill="url(#g)" />
  <path
    d="M38 47c0-8 7-14 16-14h20c9 0 16 6 16 14 0 6-4 11-10 13 9 2 15 8 15 16 0 10-8 18-19 18H53c-9 0-15-6-15-14 0-6 4-11 10-13-6-2-10-7-10-13zm18-5c-4 0-7 2-7 5s3 5 7 5h21c4 0 7-2 7-5s-3-5-7-5H56zm-2 24c-5 0-9 3-9 7s4 7 9 7h25c6 0 10-3 10-7s-4-7-10-7H54z"
    fill="#0b0d12"
    opacity="0.92"
  />
</svg>
